<mxfile host="app.diagrams.net" modified="2022-05-10T23:45:54.832Z" agent="5.0 (Macintosh)" etag="98IxrYddUZ-MWmfnfdTG" version="17.4.5" type="github">
  <diagram id="Exc4BdRlY23t1g0newev" name="Page-1">
    <mxGraphModel dx="1100" dy="615" grid="1" gridSize="10" guides="1" tooltips="1" connect="1" arrows="1" fold="1" page="1" pageScale="1" pageWidth="850" pageHeight="1100" math="0" shadow="0">
      <root>
        <mxCell id="0" />
        <mxCell id="1" parent="0" />
      </root>
    </mxGraphModel>
  </diagram>
</mxfile>
